<svg xmlns="http://www.w3.org/2000/svg" viewBox="0 0 1024 1024" role="img" aria-label="Discocraft icon">
  <defs>
    <linearGradient id="bg" x1="128" y1="128" x2="896" y2="896" gradientUnits="userSpaceOnUse">
      <stop offset="0" stop-color="#2dd4bf"/>
      <stop offset="0.52" stop-color="#2563eb"/>
      <stop offset="1" stop-color="#7c3aed"/>
    </linearGradient>
    <linearGradient id="cubeTop" x1="286" y1="200" x2="728" y2="430" gradientUnits="userSpaceOnUse">
      <stop offset="0" stop-color="#6ee7b7"/>
      <stop offset="1" stop-color="#22c55e"/>
    </linearGradient>
    <linearGradient id="cubeLeft" x1="260" y1="360" x2="512" y2="785" gradientUnits="userSpaceOnUse">
      <stop offset="0" stop-color="#15803d"/>
      <stop offset="1" stop-color="#14532d"/>
    </linearGradient>
    <linearGradient id="cubeRight" x1="512" y1="360" x2="764" y2="785" gradientUnits="userSpaceOnUse">
      <stop offset="0" stop-color="#16a34a"/>
      <stop offset="1" stop-color="#166534"/>
    </linearGradient>
    <filter id="shadow" x="-20%" y="-20%" width="140%" height="140%">
      <feDropShadow dx="0" dy="28" stdDeviation="32" flood-color="#020617" flood-opacity="0.35"/>
    </filter>
  </defs>
  <rect width="1024" height="1024" rx="220" fill="url(#bg)"/>
  <circle cx="754" cy="270" r="116" fill="#ffffff" opacity="0.16"/>
  <circle cx="212" cy="768" r="92" fill="#ffffff" opacity="0.11"/>
  <g filter="url(#shadow)">
    <path d="M512 172 784 330 512 488 240 330Z" fill="url(#cubeTop)"/>
    <path d="M240 330 512 488 512 812 240 654Z" fill="url(#cubeLeft)"/>
    <path d="M784 330 512 488 512 812 784 654Z" fill="url(#cubeRight)"/>
    <path d="M512 172 784 330 512 488 240 330Z" fill="none" stroke="#ecfeff" stroke-opacity="0.62" stroke-width="18" stroke-linejoin="round"/>
    <path d="M240 330 512 488 512 812 240 654Z" fill="none" stroke="#ecfeff" stroke-opacity="0.32" stroke-width="18" stroke-linejoin="round"/>
    <path d="M784 330 512 488 512 812 784 654Z" fill="none" stroke="#ecfeff" stroke-opacity="0.32" stroke-width="18" stroke-linejoin="round"/>
  </g>
  <g fill="none" stroke="#ffffff" stroke-width="54" stroke-linecap="round" stroke-linejoin="round" opacity="0.94">
    <path d="M302 546 C222 546 174 492 174 420 C174 348 226 296 300 296"/>
    <path d="M724 296 C798 296 850 348 850 420 C850 492 802 546 722 546"/>
    <path d="M326 420 H698"/>
  </g>
  <g fill="#ffffff">
    <circle cx="404" cy="420" r="28"/>
    <circle cx="512" cy="420" r="28"/>
    <circle cx="620" cy="420" r="28"/>
  </g>
</svg>
